<mxfile host="app.diagrams.net" agent="Mozilla/5.0 (Windows NT 10.0; Win64; x64; rv:131.0) Gecko/20100101 Firefox/131.0" version="24.8.6">
  <diagram name="Page-1" id="e7e014a7-5840-1c2e-5031-d8a46d1fe8dd">
    <mxGraphModel dx="1105" dy="596" grid="1" gridSize="10" guides="1" tooltips="1" connect="1" arrows="1" fold="1" page="1" pageScale="1" pageWidth="1169" pageHeight="826" background="none" math="0" shadow="0">
      <root>
        <mxCell id="0" />
        <mxCell id="1" parent="0" />
        <mxCell id="2" value="Utilisateur" style="swimlane;whiteSpace=wrap" parent="1" vertex="1">
          <mxGeometry x="164.5" y="10" width="280" height="790" as="geometry" />
        </mxCell>
        <mxCell id="5" value="" style="ellipse;shape=startState;fillColor=#000000;strokeColor=#ff0000;" parent="2" vertex="1">
          <mxGeometry x="100" y="40" width="30" height="30" as="geometry" />
        </mxCell>
        <mxCell id="6" value="" style="edgeStyle=elbowEdgeStyle;elbow=horizontal;verticalAlign=bottom;endArrow=open;endSize=8;strokeColor=#FF0000;endFill=1;rounded=0" parent="2" source="5" target="7" edge="1">
          <mxGeometry x="100" y="40" as="geometry">
            <mxPoint x="115" y="110" as="targetPoint" />
          </mxGeometry>
        </mxCell>
        <mxCell id="7" value="Met en entrée le fichier&#xa; csv contenant &#xa;la trajectoire" style="" parent="2" vertex="1">
          <mxGeometry x="40" y="92" width="150" height="50" as="geometry" />
        </mxCell>
        <mxCell id="8" value="Met en entrée&#xa;le MNT" style="" parent="2" vertex="1">
          <mxGeometry x="60" y="220" width="110" height="50" as="geometry" />
        </mxCell>
        <mxCell id="10" value="Met en entrée les &#xa;couches vecteurs&#xa;des surfaces &#xa;réfléchissante" style="" parent="2" vertex="1">
          <mxGeometry x="60" y="322" width="110" height="75" as="geometry" />
        </mxCell>
        <mxCell id="o1C6gEMfqOJ0pDCVifVL-65" value="Choisit le chemin&#xa;où sera enregistré&#xa;l&#39;export" style="" vertex="1" parent="2">
          <mxGeometry x="65.5" y="642" width="110" height="75" as="geometry" />
        </mxCell>
        <mxCell id="3" value="Plugin (.py)" style="swimlane;whiteSpace=wrap" parent="1" vertex="1">
          <mxGeometry x="444.5" y="10" width="280" height="790" as="geometry" />
        </mxCell>
        <mxCell id="15" value="Charge le fichier csv" style="" parent="3" vertex="1">
          <mxGeometry x="65.5" y="92" width="130" height="50" as="geometry" />
        </mxCell>
        <mxCell id="16" value="Calcule la position &#xa;du Soleil &#xa;(azimut, hauteur)" style="" parent="3" vertex="1">
          <mxGeometry x="49.5" y="163" width="110" height="50" as="geometry" />
        </mxCell>
        <mxCell id="18" value="Charger le MNT" style="" parent="3" vertex="1">
          <mxGeometry x="170.5" y="220" width="94.5" height="50" as="geometry" />
        </mxCell>
        <mxCell id="o1C6gEMfqOJ0pDCVifVL-44" value="Calcul de la visibilité du Soleil &#xa;en tenant compte du relief,&#xa;de la courbure de la Terre,&#xa;de la dépression de l&#39;horizon&#xa;et de la réfraction atmosphérique" style="" vertex="1" parent="3">
          <mxGeometry x="35.25" y="422" width="209.5" height="90" as="geometry" />
        </mxCell>
        <mxCell id="o1C6gEMfqOJ0pDCVifVL-49" value="Estimer l&#39;influence du Soleil&#xa;sur le pilote en fonction &#xa;de l’attitude del’avion (cap et assiette)" style="" vertex="1" parent="3">
          <mxGeometry x="32.75" y="532" width="214.5" height="88" as="geometry" />
        </mxCell>
        <mxCell id="o1C6gEMfqOJ0pDCVifVL-52" value="Charger les surfaces&#xa;réfléchissantes" style="" vertex="1" parent="3">
          <mxGeometry x="13.5" y="332" width="116.5" height="36" as="geometry" />
        </mxCell>
        <mxCell id="34" value="" style="whiteSpace=wrap;strokeColor=#FF0000;fillColor=#FF0000;direction=south;" parent="3" vertex="1">
          <mxGeometry x="88.75" y="402" width="100" height="5" as="geometry" />
        </mxCell>
        <mxCell id="o1C6gEMfqOJ0pDCVifVL-64" value="Génère le fichier export et l&#39;enregistre" style="" vertex="1" parent="3">
          <mxGeometry x="29.5" y="660" width="220.5" height="38" as="geometry" />
        </mxCell>
        <mxCell id="o1C6gEMfqOJ0pDCVifVL-72" value="" style="edgeStyle=elbowEdgeStyle;elbow=horizontal;verticalAlign=bottom;endArrow=open;endSize=8;strokeColor=#FF0000;endFill=1;rounded=0;exitX=0.586;exitY=1.036;exitDx=0;exitDy=0;exitPerimeter=0;" edge="1" parent="3">
          <mxGeometry x="40" y="138" as="geometry">
            <mxPoint x="132.3571428571429" y="660" as="targetPoint" />
            <mxPoint x="132.4469999999999" y="623.1679999999999" as="sourcePoint" />
          </mxGeometry>
        </mxCell>
        <mxCell id="o1C6gEMfqOJ0pDCVifVL-74" value="" style="edgeStyle=elbowEdgeStyle;elbow=horizontal;verticalAlign=bottom;endArrow=open;endSize=8;strokeColor=#FF0000;endFill=1;rounded=0;exitX=0.588;exitY=1.005;exitDx=0;exitDy=0;exitPerimeter=0;" edge="1" parent="3">
          <mxGeometry x="-404.5" y="128" as="geometry">
            <mxPoint x="134.3571428571429" y="532" as="targetPoint" />
            <mxPoint x="134.43599999999992" y="512.4499999999999" as="sourcePoint" />
          </mxGeometry>
        </mxCell>
        <mxCell id="4" value="QGIS" style="swimlane;whiteSpace=wrap;startSize=23;" parent="1" vertex="1">
          <mxGeometry x="724.5" y="10" width="280" height="790" as="geometry" />
        </mxCell>
        <mxCell id="33" value="Ajoute la couche &#xa;raster du MNT" style="" parent="4" vertex="1">
          <mxGeometry x="90" y="220" width="110" height="50" as="geometry" />
        </mxCell>
        <mxCell id="38" value="" style="ellipse;shape=endState;fillColor=#000000;strokeColor=#ff0000" parent="4" vertex="1">
          <mxGeometry x="105.5" y="730" width="30" height="30" as="geometry" />
        </mxCell>
        <mxCell id="30" value="Ajoute la couche vecteur&#xa;des points de la trajectoire" style="" parent="4" vertex="1">
          <mxGeometry x="60" y="78" width="170" height="78" as="geometry" />
        </mxCell>
        <mxCell id="o1C6gEMfqOJ0pDCVifVL-51" value="Ajoute la couche vecteur&#xa;des surfaces réfléchissante" style="" vertex="1" parent="4">
          <mxGeometry x="44" y="326" width="175" height="48" as="geometry" />
        </mxCell>
        <mxCell id="o1C6gEMfqOJ0pDCVifVL-67" value="Ajoute les flèches &#xa;renseignant sur la direction &#xa;et la visibilité du Soleil" style="" vertex="1" parent="4">
          <mxGeometry x="52" y="643" width="175" height="48" as="geometry" />
        </mxCell>
        <mxCell id="o1C6gEMfqOJ0pDCVifVL-71" value="" style="edgeStyle=elbowEdgeStyle;elbow=horizontal;verticalAlign=bottom;endArrow=open;endSize=8;strokeColor=#FF0000;endFill=1;rounded=0;exitX=0.13;exitY=0.985;exitDx=0;exitDy=0;exitPerimeter=0;" edge="1" parent="4" source="o1C6gEMfqOJ0pDCVifVL-67" target="38">
          <mxGeometry x="-240" y="138" as="geometry">
            <mxPoint x="62.5" y="689" as="targetPoint" />
            <mxPoint x="-19.5" y="689" as="sourcePoint" />
            <Array as="points">
              <mxPoint x="73" y="720" />
            </Array>
          </mxGeometry>
        </mxCell>
        <mxCell id="14" value="" style="edgeStyle=elbowEdgeStyle;elbow=horizontal;verticalAlign=bottom;endArrow=open;endSize=8;strokeColor=#FF0000;endFill=1;rounded=0;exitX=1;exitY=0.5;exitDx=0;exitDy=0;" parent="1" source="7" target="15" edge="1">
          <mxGeometry x="484.5" y="148" as="geometry">
            <mxPoint x="499.5" y="100" as="targetPoint" />
            <mxPoint x="360" y="145" as="sourcePoint" />
          </mxGeometry>
        </mxCell>
        <mxCell id="o1C6gEMfqOJ0pDCVifVL-41" value="" style="edgeStyle=elbowEdgeStyle;elbow=horizontal;verticalAlign=bottom;endArrow=open;endSize=8;strokeColor=#FF0000;endFill=1;rounded=0;exitX=1;exitY=0.5;exitDx=0;exitDy=0;entryX=0;entryY=0.5;entryDx=0;entryDy=0;" edge="1" parent="1" source="15" target="30">
          <mxGeometry x="484.5" y="148" as="geometry">
            <mxPoint x="520" y="155" as="targetPoint" />
            <mxPoint x="365" y="155" as="sourcePoint" />
          </mxGeometry>
        </mxCell>
        <mxCell id="o1C6gEMfqOJ0pDCVifVL-42" value="" style="edgeStyle=elbowEdgeStyle;elbow=horizontal;verticalAlign=bottom;endArrow=open;endSize=8;strokeColor=#FF0000;endFill=1;rounded=0;exitX=1;exitY=0.5;exitDx=0;exitDy=0;entryX=0;entryY=0.5;entryDx=0;entryDy=0;" edge="1" parent="1" source="8" target="18">
          <mxGeometry x="484.5" y="148" as="geometry">
            <mxPoint x="795" y="137" as="targetPoint" />
            <mxPoint x="650" y="137" as="sourcePoint" />
          </mxGeometry>
        </mxCell>
        <mxCell id="o1C6gEMfqOJ0pDCVifVL-43" value="" style="edgeStyle=elbowEdgeStyle;elbow=horizontal;verticalAlign=bottom;endArrow=open;endSize=8;strokeColor=#FF0000;endFill=1;rounded=0;exitX=1;exitY=0.5;exitDx=0;exitDy=0;entryX=0;entryY=0.5;entryDx=0;entryDy=0;" edge="1" parent="1" source="18" target="33">
          <mxGeometry x="484.5" y="148" as="geometry">
            <mxPoint x="603" y="265" as="targetPoint" />
            <mxPoint x="345" y="265" as="sourcePoint" />
          </mxGeometry>
        </mxCell>
        <mxCell id="o1C6gEMfqOJ0pDCVifVL-53" value="" style="edgeStyle=elbowEdgeStyle;elbow=horizontal;verticalAlign=bottom;endArrow=open;endSize=8;strokeColor=#FF0000;endFill=1;rounded=0;exitX=1;exitY=0.5;exitDx=0;exitDy=0;entryX=0;entryY=0.5;entryDx=0;entryDy=0;" edge="1" parent="1" source="o1C6gEMfqOJ0pDCVifVL-52" target="o1C6gEMfqOJ0pDCVifVL-51">
          <mxGeometry x="484.5" y="148" as="geometry">
            <mxPoint x="825" y="265" as="targetPoint" />
            <mxPoint x="713" y="265" as="sourcePoint" />
          </mxGeometry>
        </mxCell>
        <mxCell id="o1C6gEMfqOJ0pDCVifVL-54" value="" style="edgeStyle=elbowEdgeStyle;elbow=horizontal;verticalAlign=bottom;endArrow=open;endSize=8;strokeColor=#FF0000;endFill=1;rounded=0;exitX=1.013;exitY=0.367;exitDx=0;exitDy=0;entryX=0;entryY=0.5;entryDx=0;entryDy=0;exitPerimeter=0;" edge="1" parent="1" source="10" target="o1C6gEMfqOJ0pDCVifVL-52">
          <mxGeometry x="484.5" y="148" as="geometry">
            <mxPoint x="779" y="480" as="targetPoint" />
            <mxPoint x="700" y="480" as="sourcePoint" />
          </mxGeometry>
        </mxCell>
        <mxCell id="o1C6gEMfqOJ0pDCVifVL-66" value="" style="edgeStyle=elbowEdgeStyle;elbow=horizontal;verticalAlign=bottom;endArrow=open;endSize=8;strokeColor=#FF0000;endFill=1;rounded=0;exitX=1;exitY=0.5;exitDx=0;exitDy=0;entryX=0;entryY=0.5;entryDx=0;entryDy=0;" edge="1" parent="1" source="o1C6gEMfqOJ0pDCVifVL-65" target="o1C6gEMfqOJ0pDCVifVL-64">
          <mxGeometry x="484.5" y="148" as="geometry">
            <mxPoint x="470" y="690" as="targetPoint" />
            <mxPoint x="585" y="370" as="sourcePoint" />
          </mxGeometry>
        </mxCell>
        <mxCell id="o1C6gEMfqOJ0pDCVifVL-68" value="" style="edgeStyle=elbowEdgeStyle;elbow=horizontal;verticalAlign=bottom;endArrow=open;endSize=8;strokeColor=#FF0000;endFill=1;rounded=0;entryX=0;entryY=0.75;entryDx=0;entryDy=0;exitX=1;exitY=0.5;exitDx=0;exitDy=0;" edge="1" parent="1" source="o1C6gEMfqOJ0pDCVifVL-64" target="o1C6gEMfqOJ0pDCVifVL-67">
          <mxGeometry x="484.5" y="148" as="geometry">
            <mxPoint x="484" y="699" as="targetPoint" />
            <mxPoint x="690" y="698" as="sourcePoint" />
          </mxGeometry>
        </mxCell>
        <mxCell id="o1C6gEMfqOJ0pDCVifVL-75" value="" style="edgeStyle=elbowEdgeStyle;elbow=horizontal;verticalAlign=bottom;endArrow=open;endSize=8;strokeColor=#FF0000;endFill=1;rounded=0;exitX=0.588;exitY=1.005;exitDx=0;exitDy=0;exitPerimeter=0;" edge="1" parent="1">
          <mxGeometry x="-404.5" y="128" as="geometry">
            <mxPoint x="585.8571428571429" y="433" as="targetPoint" />
            <mxPoint x="585.9359999999999" y="413.44999999999993" as="sourcePoint" />
          </mxGeometry>
        </mxCell>
      </root>
    </mxGraphModel>
  </diagram>
</mxfile>
